<svg width="155" height="43" viewBox="0 0 155 43" fill="none" xmlns="http://www.w3.org/2000/svg">
<path d="M74.5211 12.053V32.967H69.6811V24.392H60.1801V32.967H55.3401V12.053H60.1801V20.299H69.6811V12.053H74.5211Z" fill="black"/>
<path d="M95.1061 16.893L87.8461 33.953C86.2921 37.837 84.0811 39.002 81.1831 39.002C79.5391 39.002 77.7481 38.464 76.7031 37.538L78.4061 34.222C79.1221 34.849 80.1081 35.238 81.0341 35.238C82.3191 35.238 83.0361 34.671 83.6631 33.237L83.7241 33.088L76.7621 16.893H81.5721L86.0831 27.798L90.6251 16.893H95.1061Z" fill="black"/>
<path d="M113.151 16.893V30.278C113.151 36.254 109.924 39.002 104.129 39.002C101.081 39.002 98.124 38.255 96.241 36.791L98.094 33.445C99.468 34.55 101.709 35.267 103.771 35.267C107.057 35.267 108.492 33.773 108.492 30.875V30.188C107.266 31.532 105.504 32.189 103.413 32.189C98.961 32.189 95.376 29.112 95.376 24.421C95.376 19.731 98.961 16.653 103.413 16.653C105.653 16.653 107.506 17.4 108.73 18.953V16.893H113.151ZM108.55 24.422C108.55 22.062 106.787 20.479 104.337 20.479C101.887 20.479 100.095 22.062 100.095 24.422C100.095 26.782 101.887 28.366 104.337 28.366C106.787 28.366 108.55 26.782 108.55 24.422Z" fill="black"/>
<path d="M134.064 16.893V30.278C134.064 36.254 130.837 39.002 125.042 39.002C121.994 39.002 119.037 38.255 117.154 36.791L119.007 33.445C120.381 34.55 122.622 35.267 124.684 35.267C127.97 35.267 129.405 33.773 129.405 30.875V30.188C128.179 31.532 126.417 32.189 124.326 32.189C119.874 32.189 116.289 29.112 116.289 24.421C116.289 19.731 119.874 16.653 124.326 16.653C126.566 16.653 128.419 17.4 129.643 18.953V16.893H134.064ZM129.463 24.422C129.463 22.062 127.7 20.479 125.25 20.479C122.8 20.479 121.008 22.062 121.008 24.422C121.008 26.782 122.8 28.366 125.25 28.366C127.701 28.366 129.463 26.782 129.463 24.422Z" fill="black"/>
<path d="M154.052 26.245H141.892C142.34 28.246 144.043 29.472 146.494 29.472C148.196 29.472 149.422 28.964 150.527 27.918L153.006 30.607C151.512 32.31 149.272 33.207 146.373 33.207C140.816 33.207 137.201 29.711 137.201 24.931C137.201 20.12 140.876 16.655 145.775 16.655C150.496 16.655 154.141 19.822 154.141 24.99C154.142 25.348 154.081 25.856 154.052 26.245ZM141.832 23.526H149.749C149.421 21.494 147.897 20.18 145.806 20.18C143.685 20.18 142.161 21.464 141.832 23.526Z" fill="black"/>
<path d="M42.88 21.44C42.88 9.599 33.281 0 21.44 0C9.599 0 0 9.599 0 21.44C0 26.826 2.001 31.735 5.28 35.501V19.897H12.698V29.848H21.579V19.897H28.997V41.484C37.104 38.425 42.88 30.617 42.88 21.44Z" fill="black"/>
<path d="M12.698 35.589V41.004C15.37 42.2 18.323 42.88 21.44 42.88C21.487 42.88 21.533 42.873 21.58 42.873V35.589H12.698Z" fill="black"/>
<path d="M21.58 19.897V29.848H12.699V19.897H5.28003V35.501C7.31303 37.835 9.83603 39.723 12.698 41.004V35.589H21.579V42.873C24.192 42.856 26.685 42.356 28.997 41.484V19.897H21.58Z" fill="white"/>
<path d="M32.8841 7.129C32.7781 7.142 32.4601 7.177 32.0581 7.219C31.7791 7.248 31.5071 7.271 31.3241 7.285C30.9611 6.625 30.3181 6.164 29.5141 6.164C28.8821 6.164 28.3681 6.36 27.9371 6.899C27.5751 7.351 27.3401 7.975 27.1111 8.3C25.2451 10.945 22.2701 11.407 18.7831 11.407C17.9791 11.407 17.2001 11.308 16.4481 11.135C16.3271 11.107 16.2081 11.229 16.2631 11.341C17.6741 14.194 21.0371 16.256 23.7691 16.708V19.859H24.5651V16.791C24.6441 16.795 24.7251 16.803 24.8031 16.804C25.2951 16.807 25.7381 16.768 26.1581 16.706V19.859H26.9541V16.542C28.2431 16.191 29.1991 15.492 30.0271 14.485C31.0251 13.271 31.6081 11.113 31.6431 9.013C31.7731 8.88 32.0741 8.565 32.2761 8.294C32.7401 7.67 33.1041 7.101 32.8841 7.129ZM29.7121 8.533C29.3701 8.533 29.0931 8.256 29.0931 7.914C29.0931 7.572 29.3701 7.295 29.7121 7.295C30.0541 7.295 30.3311 7.572 30.3311 7.914C30.3311 8.256 30.0541 8.533 29.7121 8.533Z" fill="white"/>
</svg>
