<svg width="100" height="44" viewBox="0 0 100 44" fill="none" xmlns="http://www.w3.org/2000/svg">
<path d="M25.4639 1.107C25.3419 1.122 24.9769 1.163 24.5159 1.21C24.1959 1.243 23.8839 1.269 23.6749 1.286C23.2589 0.529 22.5209 0 21.5989 0C20.8739 0 20.2849 0.225 19.7899 0.843C19.3749 1.362 19.1049 2.078 18.8419 2.45C16.7009 5.484 13.2889 6.014 9.28892 6.014C8.36692 6.014 7.47292 5.9 6.60992 5.702C6.47092 5.67 6.33492 5.81 6.39792 5.938C8.01592 9.211 11.8739 11.576 15.0079 12.094V16.141H15.9209V12.19C16.0119 12.194 16.1049 12.204 16.1939 12.204C16.7579 12.208 17.2659 12.163 17.7479 12.092V16.141H18.6609V11.904C20.1399 11.501 21.2359 10.7 22.1859 9.544C23.3309 8.151 23.9989 5.676 24.0389 3.267C24.1889 3.114 24.5329 2.754 24.7649 2.442C25.2989 1.728 25.7169 1.075 25.4639 1.107ZM21.8069 2.708C21.4309 2.708 21.1259 2.403 21.1259 2.027C21.1259 1.651 21.4309 1.346 21.8069 1.346C22.1829 1.346 22.4879 1.651 22.4879 2.027C22.4879 2.403 22.1829 2.708 21.8069 2.708Z" fill="#00CC96"/>
<path d="M19.181 16.134V37.048H14.341V28.473H4.84V37.048H0V16.134H4.84V24.38H14.341V16.134H19.181Z" fill="white"/>
<path d="M39.766 20.974L32.506 38.034C30.952 41.918 28.741 43.083 25.843 43.083C24.199 43.083 22.408 42.545 21.363 41.619L23.066 38.303C23.782 38.93 24.768 39.319 25.694 39.319C26.979 39.319 27.696 38.752 28.323 37.318L28.384 37.169L21.422 20.974H26.232L30.743 31.879L35.284 20.974H39.766Z" fill="white"/>
<path d="M57.8109 20.9739V34.3589C57.8109 40.3349 54.5839 43.0829 48.7889 43.0829C45.7409 43.0829 42.7839 42.3359 40.9009 40.8719L42.7539 37.5259C44.1279 38.6309 46.3689 39.3479 48.4309 39.3479C51.7169 39.3479 53.1519 37.8539 53.1519 34.9559V34.2689C51.9259 35.6129 50.1639 36.2699 48.0729 36.2699C43.6209 36.2699 40.0359 33.1929 40.0359 28.5019C40.0359 23.8119 43.6209 20.7339 48.0729 20.7339C50.3129 20.7339 52.1659 21.4809 53.3899 23.0339V20.9739H57.8109ZM53.2099 28.5029C53.2099 26.1429 51.4469 24.5599 48.9969 24.5599C46.5469 24.5599 44.7549 26.1429 44.7549 28.5029C44.7549 30.8629 46.5469 32.4469 48.9969 32.4469C51.4469 32.4469 53.2099 30.8629 53.2099 28.5029Z" fill="white"/>
<path d="M78.724 20.9739V34.3589C78.724 40.3349 75.497 43.0829 69.702 43.0829C66.654 43.0829 63.697 42.3359 61.814 40.8719L63.667 37.5259C65.041 38.6309 67.282 39.3479 69.344 39.3479C72.63 39.3479 74.065 37.8539 74.065 34.9559V34.2689C72.839 35.6129 71.077 36.2699 68.986 36.2699C64.534 36.2699 60.949 33.1929 60.949 28.5019C60.949 23.8119 64.534 20.7339 68.986 20.7339C71.226 20.7339 73.079 21.4809 74.303 23.0339V20.9739H78.724ZM74.123 28.5029C74.123 26.1429 72.36 24.5599 69.91 24.5599C67.46 24.5599 65.668 26.1429 65.668 28.5029C65.668 30.8629 67.46 32.4469 69.91 32.4469C72.36 32.4469 74.123 30.8629 74.123 28.5029Z" fill="white"/>
<path d="M98.7121 30.326H86.5521C87.0001 32.327 88.7031 33.553 91.1541 33.553C92.8561 33.553 94.0821 33.045 95.1871 31.999L97.6661 34.688C96.1721 36.391 93.9321 37.288 91.0331 37.288C85.4761 37.288 81.8611 33.792 81.8611 29.012C81.8611 24.201 85.5361 20.736 90.4351 20.736C95.1561 20.736 98.8011 23.903 98.8011 29.071C98.8021 29.429 98.7411 29.937 98.7121 30.326ZM86.4921 27.607H94.4091C94.0811 25.575 92.5571 24.261 90.4661 24.261C88.3451 24.261 86.8211 25.545 86.4921 27.607Z" fill="white"/>
</svg>
