<svg width="120" height="102" viewBox="0 0 120 102" fill="none" xmlns="http://www.w3.org/2000/svg">
<path d="M41.7144 30.1814V21.83C41.7144 13.4786 48.4086 6.61851 56.9014 6.61851C65.1943 6.61851 72.0884 13.3792 72.0884 21.83V30.1814" stroke="#C7D2DD" stroke-width="1.8941" stroke-miterlimit="10" stroke-linecap="round" stroke-linejoin="round"/>
<path d="M93.6699 92.2204C94.0699 92.0215 94.1699 91.8227 94.5699 91.7233" stroke="#FF78B7" stroke-width="0.6123" stroke-linecap="round" stroke-linejoin="round"/>
<path d="M11.2405 100.174H118.449" stroke="#B1B9CC" stroke-width="2" stroke-miterlimit="10" stroke-linecap="round" stroke-linejoin="round"/>
<path d="M1.44873 100.174H5.84497" stroke="#B1B9CC" stroke-width="2" stroke-miterlimit="10" stroke-linecap="round" stroke-linejoin="round"/>
<path d="M101.263 14.3734H16.1362V99.2793H101.263V14.3734Z" fill="white"/>
<path d="M101.463 14.3734H39.8159V99.2793H101.363V14.3734H101.463Z" fill="#E6ECF5"/>
<path d="M27.9262 14.3734H16.1362V99.2793H27.9262V14.3734Z" fill="url(#paint0_linear_30_2373)"/>
<path d="M39.816 99.2793H16.1362V99.0804L28.126 87.2493L39.816 99.2793Z" fill="#E6ECF5"/>
<path d="M54.7031 33.2634C56.4016 33.2634 57.8004 31.8715 57.8004 30.1814C57.8004 28.4912 56.4016 27.0993 54.7031 27.0993C53.0045 27.0993 51.6057 28.4912 51.6057 30.1814C51.6057 31.8715 53.0045 33.2634 54.7031 33.2634Z" fill="#C7D2DD"/>
<path d="M85.0773 33.2634C86.7759 33.2634 88.1747 31.8715 88.1747 30.1814C88.1747 28.4912 86.7759 27.0993 85.0773 27.0993C83.3788 27.0993 81.98 28.4912 81.98 30.1814C82.0799 31.8715 83.3788 33.2634 85.0773 33.2634Z" fill="#C7D2DD"/>
<path d="M54.7034 30.1814V21.83C54.7034 13.4786 61.3976 6.61851 69.8904 6.61851C78.1833 6.61851 85.0774 13.3792 85.0774 21.83V30.1814" stroke="#C7D2DD" stroke-width="1.8941" stroke-miterlimit="10" stroke-linecap="round" stroke-linejoin="round"/>
<path d="M94.7629 3.19806C96.9206 1.82177 99.4655 1.05105 102.176 1.05105C109.59 1.05105 115.62 6.99662 115.62 14.3735C115.62 21.7504 109.59 27.696 102.176 27.696C94.7629 27.696 88.7325 21.7504 88.7325 14.3735C88.6219 9.69415 91.0561 5.62033 94.7629 3.19806Z" fill="url(#paint1_linear_30_2373)"/>
<path d="M102.175 20.3387C99.4742 20.3387 97.1788 17.9258 97.1788 14.3064C97.1788 10.687 99.4742 8.40814 102.175 8.40814C104.875 8.40814 107.17 10.687 107.17 14.3064C107.17 17.9258 104.875 20.3387 102.175 20.3387ZM102.175 17.5236C103.12 17.5236 104.065 16.5853 104.065 14.3064C104.2 12.1616 103.12 11.0892 102.175 11.0892C101.229 11.0892 100.284 12.1616 100.284 14.3064C100.284 16.5853 101.229 17.5236 102.175 17.5236Z" fill="white"/>
<path d="M60.2744 57.4225C56.8422 57.4225 53.9592 55.2374 52.8609 52.0963C52.5863 51.4135 52.9982 50.7306 53.6846 50.4575C54.3711 50.1844 55.0575 50.5941 55.3321 51.2769C56.0185 53.3254 58.0778 54.8277 60.2744 54.8277C62.471 54.8277 64.5303 53.462 65.2168 51.2769C65.4913 50.5941 66.1778 50.1844 66.8642 50.4575C67.5506 50.7306 67.9625 51.4135 67.6879 52.0963C66.5896 55.374 63.7066 57.4225 60.2744 57.4225Z" fill="#ADB6C8"/>
<path d="M81.0049 57.4225C77.5727 57.4225 74.6897 55.2374 73.5914 52.0963C73.3168 51.4135 73.7287 50.7306 74.4151 50.4575C75.1015 50.1844 75.788 50.5941 76.0625 51.2769C76.749 53.3254 78.8083 54.8277 81.0049 54.8277C83.2015 54.8277 85.2608 53.462 85.9472 51.2769C86.2218 50.5941 86.9082 50.1844 87.5947 50.4575C88.2811 50.7306 88.693 51.4135 88.4184 52.0963C87.3201 55.374 84.4371 57.4225 81.0049 57.4225Z" fill="#ADB6C8"/>
<path d="M70.7084 74.1438C72.4523 74.1438 73.866 72.7375 73.866 71.0028C73.866 69.268 72.4523 67.8617 70.7084 67.8617C68.9645 67.8617 67.5508 69.268 67.5508 71.0028C67.5508 72.7375 68.9645 74.1438 70.7084 74.1438Z" fill="#ADB6C8"/>
<path d="M13.2008 4.79684V0.174072H31.1556V4.79684L18.9041 19.5057H31.3668V24.1284H12.5671V19.5057L24.8186 4.79684H13.2008V4.79684Z" fill="url(#paint2_linear_30_2373)"/>
<path d="M27.9872 39.4675V36.5258H39.605V39.4675L31.7894 48.9232H39.8162V51.865H27.5647V48.9232L35.3803 39.4675H27.9872Z" fill="url(#paint3_linear_30_2373)"/>
<defs>
<linearGradient id="paint0_linear_30_2373" x1="22.0051" y1="16.6331" x2="22.0051" y2="98.0576" gradientUnits="userSpaceOnUse">
<stop offset="0.00289017" stop-color="#E6ECF5"/>
<stop offset="1" stop-color="#CED7E2"/>
</linearGradient>
<linearGradient id="paint1_linear_30_2373" x1="102.177" y1="1.97666" x2="102.177" y2="16.9322" gradientUnits="userSpaceOnUse">
<stop stop-color="#B0BACC"/>
<stop offset="1" stop-color="#969EAE"/>
</linearGradient>
<linearGradient id="paint2_linear_30_2373" x1="21.9685" y1="1.00622" x2="21.9685" y2="14.4516" gradientUnits="userSpaceOnUse">
<stop stop-color="#B0BACC"/>
<stop offset="1" stop-color="#969EAE"/>
</linearGradient>
<linearGradient id="paint3_linear_30_2373" x1="33.6914" y1="37.0586" x2="33.6914" y2="45.6684" gradientUnits="userSpaceOnUse">
<stop stop-color="#B0BACC"/>
<stop offset="1" stop-color="#969EAE"/>
</linearGradient>
</defs>
</svg>
