<svg width="120" height="101" viewBox="0 0 120 101" fill="none" xmlns="http://www.w3.org/2000/svg">
<path d="M41.2656 30.0073V21.6559C41.2656 13.3045 47.9599 6.44443 56.4526 6.44443C64.7456 6.44443 71.6397 13.2051 71.6397 21.6559V30.0073" stroke="#C7D2DD" stroke-width="1.8941" stroke-miterlimit="10" stroke-linecap="round" stroke-linejoin="round"/>
<path d="M93.2212 92.0463C93.6212 91.8475 93.7212 91.6486 94.1212 91.5492" stroke="#FF78B7" stroke-width="0.6123" stroke-linecap="round" stroke-linejoin="round"/>
<path d="M10.7917 100H118" stroke="#2B323C" stroke-width="2" stroke-miterlimit="10" stroke-linecap="round" stroke-linejoin="round"/>
<path d="M1 100H5.39624" stroke="#2B323C" stroke-width="2" stroke-miterlimit="10" stroke-linecap="round" stroke-linejoin="round"/>
<path d="M100.815 14.1993H15.6875V99.1053H100.815V14.1993Z" fill="#414758"/>
<path d="M101.015 14.1993H39.3672V99.1053H100.915V14.1993H101.015Z" fill="url(#paint0_linear_30_2373)"/>
<path d="M27.4774 14.1993H15.6875V99.1053H27.4774V14.1993Z" fill="#5C6479"/>
<path d="M39.3673 99.1052H15.6875V98.9064L27.6773 87.0752L39.3673 99.1052Z" fill="#444A59"/>
<path d="M54.2543 33.0894C55.9529 33.0894 57.3517 31.6975 57.3517 30.0073C57.3517 28.3171 55.9529 26.9252 54.2543 26.9252C52.5558 26.9252 51.157 28.3171 51.157 30.0073C51.157 31.6975 52.5558 33.0894 54.2543 33.0894Z" fill="#C7D2DD"/>
<path d="M84.6286 33.0894C86.3272 33.0894 87.726 31.6975 87.726 30.0073C87.726 28.3171 86.3272 26.9252 84.6286 26.9252C82.9301 26.9252 81.5312 28.3171 81.5312 30.0073C81.6312 31.6975 82.9301 33.0894 84.6286 33.0894Z" fill="#C7D2DD"/>
<path d="M54.2545 30.0073V21.6559C54.2545 13.3045 60.9488 6.44443 69.4415 6.44443C77.7345 6.44443 84.6286 13.2051 84.6286 21.6559V30.0073" stroke="#C7D2DD" stroke-width="1.8941" stroke-miterlimit="10" stroke-linecap="round" stroke-linejoin="round"/>
<g filter="url(#filter0_d_30_2373)">
<path d="M94.3142 3.02399C96.4718 1.6477 99.0168 0.876984 101.728 0.876984C109.141 0.876984 115.172 6.82256 115.172 14.1995C115.172 21.5764 109.141 27.522 101.728 27.522C94.3142 27.522 88.2838 21.5764 88.2838 14.1995C88.1731 9.52008 90.6074 5.44627 94.3142 3.02399Z" fill="url(#paint1_linear_30_2373)"/>
</g>
<path d="M101.726 20.1646C99.0254 20.1646 96.7301 17.7517 96.7301 14.1323C96.7301 10.5129 99.0254 8.23407 101.726 8.23407C104.426 8.23407 106.722 10.5129 106.722 14.1323C106.722 17.7517 104.426 20.1646 101.726 20.1646ZM101.726 17.3496C102.671 17.3496 103.616 16.4112 103.616 14.1323C103.751 11.9875 102.671 10.9151 101.726 10.9151C100.781 10.9151 99.8356 11.9875 99.8356 14.1323C99.8356 16.4112 100.781 17.3496 101.726 17.3496Z" fill="#474E61"/>
<path d="M59.8257 57.2484C56.3935 57.2484 53.5105 55.0633 52.4122 51.9222C52.1376 51.2394 52.5495 50.5566 53.2359 50.2834C53.9223 50.0103 54.6088 50.42 54.8833 51.1028C55.5698 53.1514 57.6291 54.6536 59.8257 54.6536C62.0223 54.6536 64.0816 53.2879 64.768 51.1028C65.0426 50.42 65.729 50.0103 66.4155 50.2834C67.1019 50.5566 67.5138 51.2394 67.2392 51.9222C66.1409 55.1999 63.2579 57.2484 59.8257 57.2484Z" fill="#ADB6C8"/>
<path d="M80.5562 57.2484C77.124 57.2484 74.2409 55.0633 73.1426 51.9222C72.8681 51.2394 73.2799 50.5566 73.9664 50.2834C74.6528 50.0103 75.3392 50.42 75.6138 51.1028C76.3003 53.1514 78.3596 54.6536 80.5562 54.6536C82.7528 54.6536 84.8121 53.2879 85.4985 51.1028C85.7731 50.42 86.4595 50.0103 87.1459 50.2834C87.8324 50.5566 88.2442 51.2394 87.9697 51.9222C86.8714 55.1999 83.9883 57.2484 80.5562 57.2484Z" fill="#ADB6C8"/>
<path d="M70.2597 73.9698C72.0036 73.9698 73.4173 72.5635 73.4173 70.8287C73.4173 69.094 72.0036 67.6877 70.2597 67.6877C68.5158 67.6877 67.1021 69.094 67.1021 70.8287C67.1021 72.5635 68.5158 73.9698 70.2597 73.9698Z" fill="#ADB6C8"/>
<path d="M12.7521 4.62277V0H30.7069V4.62277L18.4554 19.3316H30.9181V23.9544H12.1184V19.3316L24.3699 4.62277H12.7521V4.62277Z" fill="url(#paint2_linear_30_2373)"/>
<path d="M27.5384 39.2935V36.3517H39.1562V39.2935L31.3406 48.7491H39.3675V51.6909H27.116V48.7491L34.9316 39.2935H27.5384Z" fill="url(#paint3_linear_30_2373)"/>
<defs>
<filter id="filter0_d_30_2373" x="84.2802" y="0.876984" width="34.8914" height="34.645" filterUnits="userSpaceOnUse" color-interpolation-filters="sRGB">
<feFlood flood-opacity="0" result="BackgroundImageFix"/>
<feColorMatrix in="SourceAlpha" type="matrix" values="0 0 0 0 0 0 0 0 0 0 0 0 0 0 0 0 0 0 127 0" result="hardAlpha"/>
<feOffset dy="4"/>
<feGaussianBlur stdDeviation="2"/>
<feComposite in2="hardAlpha" operator="out"/>
<feColorMatrix type="matrix" values="0 0 0 0 0 0 0 0 0 0 0 0 0 0 0 0 0 0 0.25 0"/>
<feBlend mode="normal" in2="BackgroundImageFix" result="effect1_dropShadow_30_2373"/>
<feBlend mode="normal" in="SourceGraphic" in2="effect1_dropShadow_30_2373" result="shape"/>
</filter>
<linearGradient id="paint0_linear_30_2373" x1="70.1908" y1="14.1993" x2="70.1908" y2="99.1053" gradientUnits="userSpaceOnUse">
<stop stop-color="#615C79"/>
<stop offset="1" stop-color="#5C6479"/>
</linearGradient>
<linearGradient id="paint1_linear_30_2373" x1="101.726" y1="0.876984" x2="101.726" y2="27.522" gradientUnits="userSpaceOnUse">
<stop stop-color="#E3EAF6"/>
<stop offset="1" stop-color="#ADB6C8"/>
</linearGradient>
<linearGradient id="paint2_linear_30_2373" x1="21.5197" y1="0.832146" x2="21.5197" y2="14.2775" gradientUnits="userSpaceOnUse">
<stop stop-color="#B0BACC"/>
<stop offset="1" stop-color="#969EAE"/>
</linearGradient>
<linearGradient id="paint3_linear_30_2373" x1="33.2427" y1="36.8846" x2="33.2427" y2="45.4943" gradientUnits="userSpaceOnUse">
<stop stop-color="#B0BACC"/>
<stop offset="1" stop-color="#969EAE"/>
</linearGradient>
</defs>
</svg>
