<svg width="100" height="44" viewBox="0 0 100 44" fill="none" xmlns="http://www.w3.org/2000/svg">
<path d="M25.464 1.107C25.342 1.122 24.977 1.163 24.516 1.21C24.196 1.243 23.884 1.269 23.675 1.286C23.259 0.529 22.521 0 21.599 0C20.874 0 20.285 0.225 19.79 0.843C19.375 1.362 19.105 2.078 18.842 2.45C16.701 5.484 13.289 6.014 9.28898 6.014C8.36698 6.014 7.47298 5.9 6.60998 5.702C6.47098 5.67 6.33499 5.81 6.39799 5.938C8.01599 9.211 11.874 11.576 15.008 12.094V16.141H15.921V12.19C16.012 12.194 16.105 12.204 16.194 12.204C16.758 12.208 17.266 12.163 17.748 12.092V16.141H18.661V11.904C20.14 11.501 21.236 10.7 22.186 9.544C23.331 8.151 23.999 5.676 24.039 3.267C24.189 3.114 24.533 2.754 24.765 2.442C25.299 1.728 25.717 1.075 25.464 1.107ZM21.807 2.708C21.431 2.708 21.126 2.403 21.126 2.027C21.126 1.651 21.431 1.346 21.807 1.346C22.183 1.346 22.488 1.651 22.488 2.027C22.488 2.403 22.183 2.708 21.807 2.708Z" fill="#00CC96"/>
<path d="M19.181 16.134V37.048H14.341V28.473H4.84V37.048H0V16.134H4.84V24.38H14.341V16.134H19.181Z" fill="#00CC96"/>
<path d="M39.766 20.974L32.506 38.034C30.952 41.918 28.741 43.083 25.843 43.083C24.199 43.083 22.408 42.545 21.363 41.619L23.066 38.303C23.782 38.93 24.768 39.319 25.694 39.319C26.979 39.319 27.696 38.752 28.323 37.318L28.384 37.169L21.422 20.974H26.232L30.743 31.879L35.284 20.974H39.766Z" fill="#00CC96"/>
<path d="M57.811 20.9739V34.3589C57.811 40.3349 54.584 43.0829 48.789 43.0829C45.741 43.0829 42.784 42.3359 40.901 40.8719L42.754 37.5259C44.128 38.6309 46.369 39.3479 48.431 39.3479C51.717 39.3479 53.152 37.8539 53.152 34.9559V34.2689C51.926 35.6129 50.164 36.2699 48.073 36.2699C43.621 36.2699 40.036 33.1929 40.036 28.5019C40.036 23.8119 43.621 20.7339 48.073 20.7339C50.313 20.7339 52.166 21.4809 53.39 23.0339V20.9739H57.811ZM53.21 28.5029C53.21 26.1429 51.447 24.5599 48.997 24.5599C46.547 24.5599 44.755 26.1429 44.755 28.5029C44.755 30.8629 46.547 32.4469 48.997 32.4469C51.447 32.4469 53.21 30.8629 53.21 28.5029Z" fill="#00CC96"/>
<path d="M78.724 20.9739V34.3589C78.724 40.3349 75.497 43.0829 69.702 43.0829C66.654 43.0829 63.697 42.3359 61.814 40.8719L63.667 37.5259C65.041 38.6309 67.282 39.3479 69.344 39.3479C72.63 39.3479 74.065 37.8539 74.065 34.9559V34.2689C72.839 35.6129 71.077 36.2699 68.986 36.2699C64.534 36.2699 60.949 33.1929 60.949 28.5019C60.949 23.8119 64.534 20.7339 68.986 20.7339C71.226 20.7339 73.079 21.4809 74.303 23.0339V20.9739H78.724ZM74.123 28.5029C74.123 26.1429 72.36 24.5599 69.91 24.5599C67.46 24.5599 65.668 26.1429 65.668 28.5029C65.668 30.8629 67.46 32.4469 69.91 32.4469C72.36 32.4469 74.123 30.8629 74.123 28.5029Z" fill="#00CC96"/>
<path d="M98.712 30.326H86.552C87 32.327 88.703 33.553 91.154 33.553C92.856 33.553 94.082 33.045 95.187 31.999L97.666 34.688C96.172 36.391 93.932 37.288 91.033 37.288C85.476 37.288 81.861 33.792 81.861 29.012C81.861 24.201 85.536 20.736 90.435 20.736C95.156 20.736 98.801 23.903 98.801 29.071C98.802 29.429 98.741 29.937 98.712 30.326ZM86.492 27.607H94.409C94.081 25.575 92.557 24.261 90.466 24.261C88.345 24.261 86.821 25.545 86.492 27.607Z" fill="#00CC96"/>
</svg>
